Coordinates
version=1
nRows=7
nColumns=33
inDegrees=yes

Units are S.I. units (second, meters, Newtons, ...)
Angles are in degrees.

endheader
time	ground_thorax_rot_x	ground_thorax_rot_y	ground_thorax_rot_z	ground_thorax_tx	ground_thorax_ty	ground_thorax_tz	clav_prot_r	clav_elev_r	scapula_abduction_r	scapula_elevation_r	scapula_upward_rot_r	scapula_winging_r	shoulder_elv_r	plane_of_elev_r	axial_rot_r	elbow_flexion_r	pro_sup_r	wrist_flex_r	wrist_dev_r	clav_prot_l	clav_elev_l	scapula_abduction_l	scapula_elevation_l	scapula_upward_rot_l	scapula_winging_l	shoulder_elv_l	plane_of_elev_l	axial_rot_l	elbow_flexion_l	pro_sup_l	wrist_flex_l	wrist_dev_l
      6.76000000	     35.84705913	     18.20680948	     22.64146779	   -271.98363684	    826.15090918	      9.17925403	     11.63162219	     37.12172250	     35.20928932	     45.00000000	    -40.74973685	   2069.55609768	  -1191.49375310	    146.92966807	   -123.93824644	   1459.39746585	     92.01460091	     12.47299368	      2.07643206	      9.14813835	    -45.00000000	    -36.34549476	     45.00000000	    -45.00000000	  -2416.53018661	   1517.53755791	     20.04671711	    -59.03154574	   1456.55705453	     80.32764768	     -1.68150314	    -13.94906369
      6.77000000	     35.80074899	     18.21735612	     22.78482340	   -270.72228643	    826.20878970	      9.07985210	     11.55223057	     37.11629874	     35.30393928	     45.00000000	    -40.58343817	   2069.62534820	  -1191.44779410	    147.00250365	   -124.11463537	   1459.48447954	     92.25708081	     12.47615524	      2.02996625	      9.14371279	    -45.00000000	    -36.39279914	     45.00000000	    -45.00000000	  -2416.63912404	   1517.49950764	     20.15155072	    -58.61079504	   1456.65412101	     80.38784623	     -1.71142306	    -13.92878830
      6.78000000	     35.85509872	     18.11200693	     22.89707967	   -269.36966065	    826.27320861	      8.98773634	     11.59063841	     37.17640699	     35.74825486	     45.00000000	    -40.46116442	   2069.37134208	  -1191.60785690	    147.04841623	   -124.32279927	   1459.56785580	     92.55228907	     12.46376967	      1.99188039	      9.11952284	    -45.00000000	    -36.11867243	     45.00000000	    -45.00000000	  -2416.68488038	   1517.48906960	     20.36290048	    -58.14116999	   1456.58211716	     80.50886591	     -1.71124043	    -13.92737581
      6.79000000	     35.75677512	     18.15293031	     23.10201810	   -267.91829695	    826.34503256	      8.90149609	     11.53148658	     37.18005941	     35.72645860	     45.00000000	    -40.23661588	   2069.44267216	  -1191.54871398	    147.04356557	   -124.55993745	   1459.65428596	     92.85452979	     12.44708247	      1.94087854	      9.05917954	    -45.00000000	    -36.11511771	     45.00000000	    -45.00000000	  -2416.79897774	   1517.50764189	     20.45609858	    -57.70586167	   1456.61372603	     80.63479064	     -1.72637655	    -13.89957350
      6.80000000	     35.74620079	     18.11672060	     23.17117028	   -266.37237299	    826.42508327	      8.81948745	     11.60872188	     37.25238385	     35.86290814	     45.00000000	    -40.10251382	   2069.36618393	  -1191.59490433	    146.94328135	   -124.70213326	   1459.70442839	     93.18023997	     12.47343653	      1.88606808	      8.99140858	    -45.00000000	    -36.05746829	     45.00000000	    -45.00000000	  -2416.94440521	   1517.46796149	     20.63363586	    -57.21327374	   1456.68830034	     80.79048428	     -1.75420324	    -13.89660886
      6.81000000	     35.63817749	     18.23507964	     23.39659737	   -264.73315146	    826.51487857	      8.73954565	     11.45317083	     37.23570273	     35.84884409	     45.00000000	    -39.82927549	   2069.43227566	  -1191.47548790	    147.04723869	   -124.93943160	   1459.79455852	     93.48767699	     12.46612967	      1.82094847	      9.01732131	    -45.00000000	    -36.18360818	     45.00000000	    -45.00000000	  -2417.05721213	   1517.52941449	     20.73406741	    -56.73264519	   1456.74985100	     80.94748999	     -1.77908381	    -13.89939756
      6.82000000	     35.55840552	     18.27462530	     23.56221564	   -263.00215705	    826.61556397	      8.65963472	     11.44097212	     37.28731141	     35.88844546	     45.00000000	    -39.62962490	   2069.43931194	  -1191.47788094	    147.00456478	   -125.09588070	   1459.87194069	     93.79493224	     12.49538896	      1.74852557	      9.08161755	    -45.00000000	    -36.21895941	     45.00000000	    -45.00000000	  -2417.17603753	   1517.49397243	     20.89483224	    -56.15989776	   1456.80068129	     81.12273419	     -1.80687365	    -13.91518567
